#!OML:ASF I:\golf\golf\golf 2\Subject 1\2002-09-07\Subject1.ASF
:FULLY-SPECIFIED
:DEGREES
519
root -11.1498 18.0621 6.20512 -155.529 75.3367 -172.668
lowerback 3.02736 2.30964 0.888841
upperback 3.66552 3.21855 4.90066
thorax 1.84304 1.64762 4.51385
lowerneck -12.4546 2.353 6.72461
upperneck 37.5886 5.75392 -5.03967
head 15.6925 3.35384 -2.21669
rclavicle 1.43125e-014 -1.74931e-014
rhumerus -8.58226 8.40455 -100.417
rradius 31.6259
rwrist -42.1234
rhand -27.474 -16.2529
rfingers 7.12502
rthumb -0.877897 -46.2308
lclavicle 1.43125e-014 -1.74931e-014
lhumerus -12.2659 -45.5943 109.231
lradius 35.4048
lwrist 49.9741
lhand -5.4208 59.7561
lfingers 7.12502
lthumb -159.611 268.706
rfemur -23.4931 -4.83231 13.4538
rtibia 22.2687
rfoot -8.08687 -16.8089
rtoes -0.038955
lfemur -29.6493 0.747936 -11.7506
ltibia 20.7071
lfoot -7.98232 -12.9007
ltoes -14.4916
520
root -11.15 18.0645 6.20564 -155.472 75.3456 -172.588
lowerback 3.06081 2.31539 0.887519
upperback 3.66933 3.22794 4.91108
thorax 1.82695 1.65262 4.52376
lowerneck -12.4443 2.41193 6.81637
upperneck 37.5234 5.85031 -5.15523
head 15.6744 3.38975 -2.26606
rclavicle 5.00937e-014 9.54166e-015
rhumerus -8.62963 8.46344 -100.398
rradius 31.6848
rwrist -42.0726
rhand -27.3668 -16.2718
rfingers 7.12502
rthumb -0.774353 -46.2501
lclavicle 5.00937e-014 9.54166e-015
lhumerus -12.2598 -45.6144 109.221
lradius 35.4011
lwrist 50.0092
lhand -5.46619 59.7618
lfingers 7.12502
lthumb -159.655 268.716
rfemur -23.4632 -4.85908 13.4787
rtibia 22.2512
rfoot -8.05026 -16.7539
rtoes 0.101338
lfemur -29.621 0.751699 -11.7202
ltibia 20.7073
lfoot -7.91744 -12.9253
ltoes -13.9604
521
root -11.1494 18.0652 6.20662 -155.523 75.3596 -172.642
lowerback 3.04447 2.33523 0.882272
upperback 3.67057 3.25312 4.89732
thorax 1.83605 1.66489 4.51269
lowerneck -12.4682 2.43231 6.82347
upperneck 37.5175 5.87778 -5.15912
head 15.6802 3.40091 -2.26386
rclavicle 9.70069e-014 9.38264e-014
rhumerus -8.56255 8.3611 -100.387
rradius 31.5825
rwrist -41.9157
rhand -27.161 -16.2481
rfingers 7.12502
rthumb -0.575593 -46.2271
lclavicle 9.70069e-014 9.38264e-014
lhumerus -12.3017 -45.7276 109.238
lradius 35.4466
lwrist 50.1159
lhand -5.6733 59.8317
lfingers 7.12502
lthumb -159.854 268.807
rfemur -23.4421 -4.82718 13.4558
rtibia 22.2149
rfoot -8.13341 -16.7937
rtoes 0.491555
lfemur -29.6219 0.71252 -11.7117
ltibia 20.7212
lfoot -7.82177 -12.9165
ltoes -13.2031
522
root -11.1479 18.0646 6.20566 -155.68 75.3545 -172.767
lowerback 3.06118 2.34017 0.874241
upperback 3.67438 3.25973 4.88354
thorax 1.83047 1.66802 4.50198
lowerneck -12.4922 2.44846 6.79691
upperneck 37.5224 5.89169 -5.1159
head 15.687 3.40796 -2.23774
rclavicle 4.77083e-015 9.54166e-015
rhumerus -8.5064 8.22163 -100.399
rradius 31.4705
rwrist -41.8029
rhand -27.102 -16.2398
rfingers 7.12502
rthumb -0.51864 -46.2189
lclavicle 4.77083e-015 9.54166e-015
lhumerus -12.3495 -45.7853 109.266
lradius 35.4716
lwrist 50.1879
lhand -5.79262 59.858
lfingers 7.12502
lthumb -159.968 268.845
rfemur -23.3787 -4.77596 13.4062
rtibia 22.1843
rfoot -8.16864 -16.8837
rtoes 0.149484
lfemur -29.5876 0.600169 -11.7025
ltibia 20.7348
lfoot -7.64937 -12.8969
ltoes -12.0493
523
root -11.1468 18.0647 6.20523 -155.733 75.3472 -172.772
lowerback 3.0962 2.34813 0.913104
upperback 3.68649 3.27204 4.86779
thorax 1.82546 1.67526 4.4621
lowerneck -12.5047 2.47517 6.77942
upperneck 37.4866 5.91636 -5.0845
head 15.6724 3.41776 -2.21636
rclavicle -4.13472e-014 -2.54444e-014
rhumerus -8.53351 8.10384 -100.404
rradius 31.4682
rwrist -41.6316
rhand -27.0171 -16.2034
rfingers 7.12502
rthumb -0.436597 -46.1827
lclavicle -4.13472e-014 -2.54444e-014
lhumerus -12.3553 -45.8816 109.26
lradius 35.4942
lwrist 50.2831
lhand -5.8129 59.7952
lfingers 7.12502
lthumb -159.988 268.785
rfemur -23.3199 -4.81305 13.4148
rtibia 22.1707
rfoot -8.10528 -16.8669
rtoes -0.497957
lfemur -29.538 0.563897 -11.6948
ltibia 20.7425
lfoot -7.63521 -12.8783
ltoes -11.9786
524
root -11.1472 18.0651 6.20595 -155.654 75.3269 -172.703
lowerback 3.08277 2.34705 0.952584
upperback 3.68255 3.27118 4.87326
thorax 1.83081 1.67577 4.44615
lowerneck -12.5011 2.51566 6.79702
upperneck 37.4261 5.98611 -5.14738
head 15.6508 3.43899 -2.23417
rclavicle -2.06736e-014 -7.4743e-014
rhumerus -8.61183 8.16649 -100.381
rradius 31.5689
rwrist -41.6083
rhand -26.9958 -16.26
rfingers 7.12502
rthumb -0.416059 -46.2393
lclavicle -2.06736e-014 -7.4743e-014
lhumerus -12.3446 -45.9248 109.253
lradius 35.4986
lwrist 50.3168
lhand -5.83798 59.734
lfingers 7.12502
lthumb -160.012 268.726
rfemur -23.3317 -4.86064 13.4533
rtibia 22.168
rfoot -8.11029 -16.8193
rtoes -0.225413
lfemur -29.5548 0.552721 -11.6738
ltibia 20.7452
lfoot -7.75788 -12.804
ltoes -12.7657
525
root -11.1483 18.0647 6.20455 -155.679 75.2921 -172.756
lowerback 3.06341 2.32559 0.989905
upperback 3.66264 3.24278 4.87271
thorax 1.82507 1.66237 4.42536
lowerneck -12.4826 2.56032 6.82214
upperneck 37.3805 6.07905 -5.24481
head 15.6372 3.46792 -2.26446
rclavicle 3.18055e-015 6.20208e-014
rhumerus -8.6956 8.36189 -100.364
rradius 31.7134
rwrist -41.9144
rhand -27.2 -16.3986
rfingers 7.12502
rthumb -0.613242 -46.3774
lclavicle 3.18055e-015 6.20208e-014
lhumerus -12.3707 -45.8151 109.263
lradius 35.4657
lwrist 50.1858
lhand -5.63297 59.6329
lfingers 7.12502
lthumb -159.815 268.604
rfemur -23.3657 -4.90934 13.4482
rtibia 22.1807
rfoot -8.0295 -16.7881
rtoes -0.217753
lfemur -29.5981 0.479589 -11.6696
ltibia 20.7474
lfoot -7.80999 -12.7367
ltoes -13.1829
526
root -11.1488 18.0632 6.2033 -155.7 75.2799 -172.787
lowerback 3.06056 2.31285 0.987745
upperback 3.6497 3.22647 4.89261
thorax 1.81321 1.6543 4.44733
lowerneck -12.4818 2.59092 6.79044
upperneck 37.3636 6.15265 -5.29584
head 15.6363 3.48739 -2.26788
rclavicle 1.59028e-015 2.54444e-014
rhumerus -8.73201 8.47671 -100.338
rradius 31.763
rwrist -42.1647
rhand -27.3579 -16.4279
rfingers 7.12502
rthumb -0.765799 -46.4063
lclavicle 1.59028e-015 2.54444e-014
lhumerus -12.3929 -45.7035 109.303
lradius 35.4389
lwrist 50.0648
lhand -5.38507 59.5464
lfingers 7.12502
lthumb -159.577 268.492
rfemur -23.3908 -4.92095 13.438
rtibia 22.2026
rfoot -7.88977 -16.8093
rtoes -0.502347
lfemur -29.622 0.513096 -11.7043
ltibia 20.7503
lfoot -7.84973 -12.7597
ltoes -13.6715
527
root -11.1488 18.0612 6.20343 -155.62 75.2746 -172.694
lowerback 3.088 2.3085 0.927915
upperback 3.63378 3.22351 4.96929
thorax 1.77429 1.65224 4.5592
lowerneck -12.4824 2.62337 6.76278
upperneck 37.3781 6.25044 -5.38544
head 15.6556 3.51437 -2.2846
rclavicle -2.38542e-015 0
rhumerus -8.80871 8.60621 -100.265
rradius 31.7876
rwrist -42.1984
rhand -27.4091 -16.436
rfingers 7.12502
rthumb -0.815222 -46.4141
lclavicle -2.38542e-015 0
lhumerus -12.4111 -45.5517 109.415
lradius 35.404
lwrist 49.9887
lhand -5.41077 59.4808
lfingers 7.12502
lthumb -159.601 268.429
rfemur -23.3866 -4.88042 13.456
rtibia 22.2178
rfoot -7.91252 -16.857
rtoes -0.323176
lfemur -29.6093 0.547997 -11.6931
ltibia 20.7484
lfoot -7.95406 -12.7804
ltoes -13.9915
